<?xml version="1.0" encoding="utf-8"?><!DOCTYPE svg PUBLIC "-//W3C//DTD SVG 1.1//EN" "http://www.w3.org/Graphics/SVG/1.1/DTD/svg11.dtd"><svg xmlns="http://www.w3.org/2000/svg" xmlns:xlink="http://www.w3.org/1999/xlink"><symbol viewBox="0 0 16 16" id="hook"><path d="M0 0v16h16V0H0zm12.818 6.012L7.579 11.25a.906.906 0 0 1-1.262 0L3.17 8.104a.904.904 0 0 1 0-1.262.906.906 0 0 1 1.262 0l2.523 2.523L11.57 4.75a.904.904 0 0 1 1.262 0 .893.893 0 0 1-.014 1.262z"/></symbol><symbol viewBox="0 0 40 40" id="question"><path d="M20 0C8.955 0 0 8.955 0 20s8.955 20 20 20 20-8.955 20-20S31.045 0 20 0zm0 37.332c-9.573 0-17.333-7.76-17.333-17.332 0-9.573 7.76-17.334 17.333-17.334S37.334 10.427 37.334 20c0 9.572-7.761 17.332-17.334 17.332z"/><path d="M21.092 31.205c-.402.412-.823.553-1.39.553s-.983-.141-1.378-.553c-.396-.412-.527-.846-.527-1.43s.131-1.012.527-1.416c.395-.402.802-.539 1.352-.539.584 0 1.012.137 1.416.539.404.404.541.832.541 1.416s-.137 1.018-.541 1.43zM26.463 16.015a6.61 6.61 0 0 1-.859 1.717c-.229.354-.778.937-1.653 1.748-.812.791-1.321 1.348-1.529 1.67s-.385.748-.528 1.279c-.146.529-.24 1.273-.281 2.23 0 0-.129 1.508-1.9 1.469-1.252-.031-1.492-1.102-1.465-1.604l.106-1.268c.187-1.012.251-1.475.719-2.556.468-1.082.946-1.777 1.892-2.904.871-1.037 1.584-1.993 1.792-2.336.208-.344.312-.755.312-1.233 0-.625-.289-1.401-.799-1.839-.511-.437-1.412-.932-2.265-.932-.874 0-1.969.348-2.531.879-.561.531-.772 1.412-.772 2.266 0 0 .413 1.884-1.651 1.884-1.896 0-1.774-1.659-1.774-1.659-.021-1.894.614-3.466 1.905-4.715 1.269-1.249 2.945-1.873 5.026-1.873 1.332 0 2.472.255 3.419.765a5.747 5.747 0 0 1 2.264 2.217c.562.968.842 1.993.842 3.075a5.787 5.787 0 0 1-.27 1.72z"/></symbol></svg>