<?xml version="1.0" encoding="utf-8"?>
<!-- Generator: Adobe Illustrator 16.0.0, SVG Export Plug-In . SVG Version: 6.00 Build 0)  -->
<!DOCTYPE svg PUBLIC "-//W3C//DTD SVG 1.1//EN" "http://www.w3.org/Graphics/SVG/1.1/DTD/svg11.dtd">
<svg version="1.1" id="图层_1" xmlns="http://www.w3.org/2000/svg" xmlns:xlink="http://www.w3.org/1999/xlink" x="0px" y="0px"
	 width="40px" height="40px" viewBox="0 0 40 40" enable-background="new 0 0 40 40" xml:space="preserve">
<g>
	<path d="M20,0C8.955,0,0,8.955,0,20s8.955,20,20,20s20-8.955,20-20S31.045,0,20,0z M20,37.332c-9.573,0-17.333-7.76-17.333-17.332
		c0-9.573,7.76-17.334,17.333-17.334S37.334,10.427,37.334,20C37.334,29.572,29.573,37.332,20,37.332z"/>
	<g>
		<path d="M21.092,31.205c-0.402,0.412-0.823,0.553-1.39,0.553c-0.567,0-0.983-0.141-1.378-0.553
			c-0.396-0.412-0.527-0.846-0.527-1.43s0.131-1.012,0.527-1.416c0.395-0.402,0.802-0.539,1.352-0.539
			c0.584,0,1.012,0.137,1.416,0.539c0.404,0.404,0.541,0.832,0.541,1.416S21.496,30.793,21.092,31.205L21.092,31.205z"/>
		<path d="M26.463,16.015c-0.177,0.562-0.463,1.134-0.859,1.717c-0.229,0.354-0.778,0.937-1.653,1.748
			c-0.812,0.791-1.321,1.348-1.529,1.67s-0.385,0.748-0.528,1.279c-0.146,0.529-0.24,1.273-0.281,2.23c0,0-0.129,1.508-1.9,1.469
			c-1.252-0.031-1.492-1.102-1.465-1.604l0.106-1.268c0.187-1.012,0.251-1.475,0.719-2.556c0.468-1.082,0.946-1.777,1.892-2.904
			c0.871-1.037,1.584-1.993,1.792-2.336c0.208-0.344,0.312-0.755,0.312-1.233c0-0.625-0.289-1.401-0.799-1.839
			c-0.511-0.437-1.412-0.932-2.265-0.932c-0.874,0-1.969,0.348-2.531,0.879c-0.561,0.531-0.772,1.412-0.772,2.266
			c0,0,0.413,1.884-1.651,1.884c-1.896,0-1.774-1.659-1.774-1.659c-0.021-1.894,0.614-3.466,1.905-4.715
			c1.269-1.249,2.945-1.873,5.026-1.873c1.332,0,2.472,0.255,3.419,0.765c0.945,0.511,1.701,1.249,2.264,2.217
			c0.562,0.968,0.842,1.993,0.842,3.075C26.729,14.881,26.641,15.453,26.463,16.015L26.463,16.015z"/>
	</g>
</g>
</svg>
